<?xml version="1.0" standalone="no"?>
<!DOCTYPE svg PUBLIC "-//W3C//DTD SVG 20010904//EN"
 "http://www.w3.org/TR/2001/REC-SVG-20010904/DTD/svg10.dtd">
<svg version="1.0" xmlns="http://www.w3.org/2000/svg"
 width="1000.000000pt" height="1000.000000pt" viewBox="0 0 1000.000000 1000.000000"
 preserveAspectRatio="xMidYMid meet">
<metadata>
Created by potrace 1.14, written by Peter Selinger 2001-2017
</metadata>
<g transform="translate(0.000000,1000.000000) scale(0.100000,-0.100000)"
fill="#000000" stroke="none">
<path d="M0 5000 l0 -5000 5000 0 5000 0 0 5000 0 5000 -5000 0 -5000 0 0
-5000z m4475 785 c194 -41 350 -190 400 -380 22 -86 22 -724 0 -810 -50 -190
-206 -339 -400 -380 -94 -20 -667 -19 -765 1 -188 39 -346 191 -395 379 -22
86 -22 724 0 810 49 188 207 340 395 379 98 20 671 21 765 1z m1815 -1 c188
-39 346 -191 395 -379 22 -86 22 -724 0 -810 -49 -188 -207 -340 -395 -379
-98 -20 -671 -21 -765 -1 -194 41 -350 190 -400 380 -22 86 -22 724 0 810 49
188 206 338 395 380 90 19 675 19 770 -1z"/>
<path d="M3789 5479 c-19 -3 -45 -11 -59 -17 -38 -15 -97 -85 -109 -129 -7
-23 -11 -156 -11 -333 0 -177 4 -310 11 -333 13 -48 71 -113 116 -132 27 -12
102 -15 356 -15 356 -1 365 0 424 62 61 63 63 75 63 420 0 284 -2 317 -19 353
-22 46 -73 97 -116 114 -33 12 -594 21 -656 10z m381 -271 c69 -48 75 -64 75
-218 0 -125 -2 -141 -21 -167 -72 -97 -186 -97 -258 0 -19 26 -21 42 -21 167
0 125 2 141 21 167 34 46 82 73 129 73 27 0 54 -8 75 -22z"/>
<path d="M5605 5479 c-58 -9 -86 -23 -122 -61 -61 -64 -63 -75 -63 -418 0
-343 2 -355 63 -418 59 -61 68 -62 422 -63 261 0 328 3 356 15 47 20 105 85
118 133 7 23 11 156 11 333 0 177 -4 310 -11 333 -13 48 -71 113 -117 133 -28
11 -97 15 -326 17 -160 1 -309 -1 -331 -4z m375 -271 c69 -48 75 -64 75 -218
0 -125 -2 -141 -21 -167 -72 -97 -186 -97 -258 0 -19 26 -21 42 -21 167 0 125
2 141 21 167 34 46 82 73 129 73 27 0 54 -8 75 -22z"/>
</g>
</svg>
